<?xml version="1.0" encoding="UTF-8"?>
<svg id="Layer_1" xmlns="http://www.w3.org/2000/svg" version="1.1" viewBox="0 0 512 512">
  <!-- Generator: Adobe Illustrator 29.7.1, SVG Export Plug-In . SVG Version: 2.1.1 Build 8)  -->
  <defs>
    <style>
      .st0, .st1 {
        fill: #fff;
      }

      .st1 {
        isolation: isolate;
        opacity: .8;
      }
    </style>
  </defs>
  <path class="st0" d="M410.1,422.6l-73.8-131.1v131.1h-82.5V84.2h109.4c44.3,0,77.2,8.7,99.8,25.2,24.3,18.2,36.5,46.9,36.5,85.9,0,51.2-21.7,85.9-65.1,103.3l74.6,124h-98.9ZM336.3,151.8v93.7h26c13.9.9,28.6-3.5,39.9-12.2,9.5-8.7,14.8-21.7,13.9-34.7.9-13-4.3-25.2-13-33.8-9.5-8.7-22.6-13.9-35.6-13h-31.2Z"/>
  <path class="st1" d="M67.2,90.2H3l125.8,175.3h111.1l-98.1-137.1c-17.3-23.4-45.1-38.2-74.6-38.2Z"/>
  <path class="st0" d="M74.2,427.8H9.9l175.3-238.7,55.5,76.4-92,125c-17.2,23.5-45,37.3-74.5,37.3Z"/>
</svg>