<?xml version="1.0" encoding="UTF-8"?>
<svg id="Layer_1" xmlns="http://www.w3.org/2000/svg" version="1.1" viewBox="0 0 300 50">
  <!-- Generator: Adobe Illustrator 29.7.1, SVG Export Plug-In . SVG Version: 2.1.1 Build 8)  -->
  <defs>
    <style>
      .st0 {
        isolation: isolate;
        opacity: .8;
      }
    </style>
  </defs>
  <path d="M59.1,44.4l-8.5-15.1v15.1h-9.5V5.4h12.6c5.1,0,8.9,1,11.4,2.9,2.8,2.1,4.2,5.4,4.2,9.9,0,5.9-2.5,9.9-7.5,11.9l8.6,14.3h-11.3ZM50.6,13.2v10.8h3c1.6.1,3.3-.4,4.6-1.4,1.1-1,1.7-2.5,1.6-4,.1-1.5-.5-2.9-1.5-3.9-1.1-1-2.6-1.6-4.1-1.5h-3.6Z"/>
  <path d="M97,29h-12.8v15.4h-9.5V5.4h9.5v15.9h12.8V5.4h9.5v38.9h-9.5v-15.3Z"/>
  <path d="M113.1,5.4h9.5v38.9h-9.5V5.4Z"/>
  <path d="M152.1,44.4l-14.2-22.2v22.2h-9.5V5.4h9.5l14.2,21.9V5.4h9.5v38.9h-9.5v.1Z"/>
  <path d="M191,44.4l-14.2-22.2v22.2h-9.5V5.4h9.5l14.2,21.9V5.4h9.5v38.9h-9.5v.1Z"/>
  <path d="M226.1,4.7c5.4-.2,10.6,2,14.4,5.8,3.8,3.8,5.9,9.1,5.8,14.5.1,5.4-2.1,10.5-6,14.2-3.8,3.8-9,6-14.4,5.9-5.5.1-10.8-2-14.8-5.8-3.9-3.7-6.1-8.9-6.1-14.2-.1-5.7,2.3-11.1,6.5-14.9,4-3.7,9.2-5.7,14.6-5.5ZM225.7,13.4c-3-.1-5.9,1.1-7.9,3.3-2.1,2.2-3.2,5.2-3.2,8.2-.1,3,1.1,5.9,3.2,8.1,4.2,4.3,11.1,4.4,15.5.3q.1-.1.2-.2c2.1-2.1,3.3-5,3.2-8,.1-3.1-1-6.1-3.2-8.3-2-2.2-4.8-3.4-7.8-3.4Z"/>
  <path d="M258.9,5.5h9.5v38.9h-9.5V5.5Z"/>
  <path d="M298,13.1h-8.9v31.3h-9.5V13.1h-9v-7.6h27.4v7.6Z"/>
  <path class="st0" d="M9.4,6.4H2l14.6,20.3h12.9l-11.4-15.8c-2-2.8-5.2-4.5-8.7-4.5Z"/>
  <path d="M10,45.3H2.5l20.3-27.7,6.5,8.8-10.6,14.5c-2.1,2.8-5.3,4.4-8.7,4.4Z"/>
</svg>